<?xml version="1.0" encoding="UTF-8"?>
<svg version="1.1" xmlns="http://www.w3.org/2000/svg" width="133" height="133">
<path d="M0 0 C0.80078476 -0.00700928 1.60156952 -0.01401855 2.42662048 -0.02124023 C5.06016238 -0.03877185 7.69262002 -0.02721515 10.32617188 -0.01367188 C12.16410528 -0.01636819 14.00203729 -0.02025177 15.83996582 -0.02526855 C19.6865806 -0.03115704 23.53282312 -0.02262166 27.37939453 -0.00390625 C32.30237715 0.01888298 37.22448742 0.0057564 42.14743805 -0.01819611 C45.94108618 -0.03267169 49.73452855 -0.02804004 53.52818298 -0.01768494 C55.34301355 -0.01502251 57.15786299 -0.01827033 58.97267151 -0.02760315 C61.51223004 -0.03779794 64.05038908 -0.02222787 66.58984375 0 C67.33495712 -0.00809692 68.0800705 -0.01619385 68.84776306 -0.02453613 C73.98556907 0.05849372 76.90253827 1.1862338 80.79492188 4.51757812 C85.59974842 9.77857652 85.36589417 14.7131348 85.3125 21.4765625 C85.31950928 22.56995438 85.32651855 23.66334625 85.33374023 24.78987122 C85.35131801 28.3972833 85.33969746 32.00390832 85.32617188 35.61132812 C85.32886683 38.12186839 85.33274928 40.63240764 85.33776855 43.14294434 C85.34366332 48.4018555 85.33548365 53.6605627 85.31640625 58.91943359 C85.29463906 64.98966876 85.30169117 71.05936645 85.32371187 77.1295886 C85.34408697 82.98158098 85.34188476 88.83336992 85.33018494 94.68537903 C85.32751773 97.17007014 85.33078716 99.65477499 85.34010315 102.13945007 C85.35026845 105.6128669 85.33476613 109.08525359 85.3125 112.55859375 C85.32059692 113.58422928 85.32869385 114.60986481 85.33703613 115.6665802 C85.2685751 121.43500254 84.85132725 125.07605625 80.79492188 129.51757812 C76.22386223 133.42977567 72.43033708 134.09862314 66.58984375 134.03515625 C65.78905899 134.04216553 64.98827423 134.0491748 64.16322327 134.05639648 C61.52968137 134.0739281 58.89722373 134.0623714 56.26367188 134.04882812 C54.42573847 134.05152444 52.58780646 134.05540802 50.74987793 134.0604248 C46.90326315 134.06631329 43.05702063 134.05777791 39.21044922 134.0390625 C34.2874666 134.01627327 29.36535633 134.02939985 24.4424057 134.05335236 C20.64875757 134.06782794 16.8553152 134.06319629 13.06166077 134.05284119 C11.2468302 134.05017876 9.43198076 134.05342658 7.61717224 134.0627594 C5.07761371 134.07295419 2.53945467 134.05738412 0 134.03515625 C-0.74511337 134.04325317 -1.49022675 134.0513501 -2.25791931 134.05969238 C-7.39572532 133.97666253 -10.31269452 132.84892245 -14.20507812 129.51757812 C-19.00990467 124.25657973 -18.77605042 119.32202145 -18.72265625 112.55859375 C-18.72966553 111.46520187 -18.7366748 110.37181 -18.74389648 109.24528503 C-18.76147426 105.63787295 -18.74985371 102.03124793 -18.73632812 98.42382812 C-18.73902308 95.91328786 -18.74290553 93.40274861 -18.7479248 90.89221191 C-18.75381957 85.63330075 -18.7456399 80.37459355 -18.7265625 75.11572266 C-18.70479531 69.04548749 -18.71184742 62.9757898 -18.73386812 56.90556765 C-18.75424322 51.05357527 -18.75204101 45.20178633 -18.74034119 39.34977722 C-18.73767398 36.86508611 -18.74094341 34.38038126 -18.7502594 31.89570618 C-18.7604247 28.42228935 -18.74492238 24.94990266 -18.72265625 21.4765625 C-18.73075317 20.45092697 -18.7388501 19.42529144 -18.74719238 18.36857605 C-18.67873135 12.60015371 -18.2614835 8.9591 -14.20507812 4.51757812 C-9.63401848 0.60538058 -5.84049333 -0.06346689 0 0 Z " fill="#3A484A" transform="translate(33.205078125,-0.517578125)"/>
<path d="M0 0 C1.33951412 0.30755618 2.67215313 0.6454417 4 1 C6.75440086 1.22400248 9.49207589 1.41370115 12.25 1.5625 C14.8075 1.706875 17.365 1.85125 20 2 C20 11.9 20 21.8 20 32 C-4.75 32 -29.5 32 -55 32 C-55 3 -55 3 -54 2 C-52.34868658 1.88231322 -50.692463 1.83269612 -49.03710938 1.81054688 C-47.45041443 1.78547058 -47.45041443 1.78547058 -45.83166504 1.7598877 C-44.68065308 1.74631226 -43.52964111 1.73273682 -42.34375 1.71875 C-40.58484436 1.69113586 -40.58484436 1.69113586 -38.79040527 1.66296387 C-33.74855033 1.58396211 -28.70655515 1.51643557 -23.66455078 1.44775391 C-19.99504699 1.39616408 -16.32566341 1.33885837 -12.65625 1.28125 C-11.50523804 1.26767456 -10.35422607 1.25409912 -9.16833496 1.2401123 C-7.58164001 1.21503601 -7.58164001 1.21503601 -5.96289062 1.18945312 C-5.02658813 1.17692505 -4.09028564 1.16439697 -3.12561035 1.15148926 C-1.01603502 1.23438529 -1.01603502 1.23438529 0 0 Z " fill="#2FC9B5" transform="translate(84,12)"/>
<path d="M0 0 C0.80078476 -0.00700928 1.60156952 -0.01401855 2.42662048 -0.02124023 C5.06016238 -0.03877185 7.69262002 -0.02721515 10.32617188 -0.01367188 C12.16410528 -0.01636819 14.00203729 -0.02025177 15.83996582 -0.02526855 C19.6865806 -0.03115704 23.53282312 -0.02262166 27.37939453 -0.00390625 C32.30237715 0.01888298 37.22448742 0.0057564 42.14743805 -0.01819611 C45.94108618 -0.03267169 49.73452855 -0.02804004 53.52818298 -0.01768494 C55.34301355 -0.01502251 57.15786299 -0.01827033 58.97267151 -0.02760315 C61.51223004 -0.03779794 64.05038908 -0.02222787 66.58984375 0 C67.33495712 -0.00809692 68.0800705 -0.01619385 68.84776306 -0.02453613 C73.98556907 0.05849372 76.90253827 1.1862338 80.79492188 4.51757812 C85.59974842 9.77857652 85.36589417 14.7131348 85.3125 21.4765625 C85.31950928 22.56995438 85.32651855 23.66334625 85.33374023 24.78987122 C85.35131801 28.3972833 85.33969746 32.00390832 85.32617188 35.61132812 C85.32886683 38.12186839 85.33274928 40.63240764 85.33776855 43.14294434 C85.34366332 48.4018555 85.33548365 53.6605627 85.31640625 58.91943359 C85.29463906 64.98966876 85.30169117 71.05936645 85.32371187 77.1295886 C85.34408697 82.98158098 85.34188476 88.83336992 85.33018494 94.68537903 C85.32751773 97.17007014 85.33078716 99.65477499 85.34010315 102.13945007 C85.35026845 105.6128669 85.33476613 109.08525359 85.3125 112.55859375 C85.32059692 113.58422928 85.32869385 114.60986481 85.33703613 115.6665802 C85.2664137 121.61711882 84.71758571 124.96535374 80.79492188 129.51757812 C75.30802638 134.75739462 69.3221507 134.03404454 62.17773438 133.90820312 C60.96544159 133.90254333 59.7531488 133.89688354 58.50411987 133.89105225 C54.64231438 133.86870971 50.7814457 133.8185141 46.91992188 133.76757812 C44.29753947 133.74751052 41.67514248 133.72926021 39.05273438 133.71289062 C32.63314535 133.66885164 26.21410056 133.60195918 19.79492188 133.51757812 C20.12492187 132.19757813 20.45492187 130.87757813 20.79492188 129.51757812 C21.43527878 129.51171188 22.07563568 129.50584564 22.73539734 129.49980164 C29.40290906 129.4358462 36.06993907 129.35142054 42.73706055 129.25512695 C45.22495165 129.22188155 47.71291812 129.19384846 50.20092773 129.17114258 C53.77815856 129.13759042 57.35469906 129.08527221 60.93164062 129.02929688 C62.59908577 129.01971199 62.59908577 129.01971199 64.30021667 129.00993347 C65.34091812 128.99013931 66.38161957 128.97034515 67.45385742 128.94995117 C68.36652878 128.93884811 69.27920013 128.92774506 70.2195282 128.91630554 C73.38741932 128.42584653 75.23872937 127.43984238 77.79492188 125.51757812 C79.6199332 122.5710749 80.04795557 120.33358601 80.06234741 116.8941803 C80.07087738 115.97035049 80.07940735 115.04652069 80.0881958 114.09469604 C80.08728943 113.08835114 80.08638306 112.08200623 80.08544922 111.04516602 C80.09216644 109.97972061 80.09888367 108.91427521 80.10580444 107.81654358 C80.12481795 104.29105988 80.12871019 100.76576617 80.13085938 97.24023438 C80.13728436 94.79170147 80.14401249 92.34316934 80.15103149 89.89463806 C80.16301223 84.76087666 80.16671143 79.6271826 80.16552734 74.4934082 C80.16532398 67.91130893 80.19264157 61.32964055 80.22707176 54.74764347 C80.24929418 49.69048575 80.25336633 44.63343256 80.25230789 39.576231 C80.25467028 37.14931183 80.26352947 34.72239006 80.27897263 32.29551888 C80.29854006 28.90316574 80.2928305 25.51175262 80.28076172 22.11938477 C80.29200073 21.11506409 80.30323975 20.11074341 80.31481934 19.07598877 C80.27554704 14.73795618 80.20431563 12.20627038 77.95205688 8.41746521 C74.07562889 5.00331846 70.08719862 5.353308 65.18994141 5.32470703 C64.03090302 5.3124408 64.03090302 5.3124408 62.84844971 5.29992676 C60.29155244 5.27511482 57.73471045 5.25856935 55.17773438 5.24414062 C54.30412136 5.23881695 53.43050835 5.23349327 52.53042221 5.22800827 C47.90814848 5.20129752 43.28590158 5.18191426 38.66357422 5.16748047 C34.83781084 5.15412872 31.01257926 5.12625092 27.18701172 5.08544922 C22.56694829 5.03617481 17.94736806 5.01136625 13.32705307 5.00425339 C11.56716512 4.99753569 9.80728817 4.98230006 8.0475502 4.95836258 C5.58402433 4.92675802 3.1223666 4.92666614 0.65869141 4.93408203 C-0.06667816 4.9176767 -0.79204773 4.90127136 -1.53939819 4.8843689 C-5.51040451 4.93325775 -7.05397643 5.38995003 -10.13406372 7.99154663 C-10.81749847 8.82513702 -11.50093323 9.65872742 -12.20507812 10.51757812 C-12.53507812 10.84757813 -12.86507813 11.17757813 -13.20507812 11.51757812 C-13.30923942 12.93323431 -13.34468986 14.3540204 -13.35224915 15.77348328 C-13.35940445 16.69174393 -13.36655975 17.61000458 -13.37393188 18.55609131 C-13.37662079 19.571651 -13.37930969 20.58721069 -13.38208008 21.63354492 C-13.39193687 23.22864647 -13.39193687 23.22864647 -13.4019928 24.85597229 C-13.42178443 28.39291444 -13.43340239 31.929814 -13.44335938 35.46679688 C-13.4474349 36.67197275 -13.45151043 37.87714863 -13.45570946 39.11884499 C-13.47659678 45.49939428 -13.49088607 51.87992191 -13.50024414 58.26049805 C-13.51130466 64.85713267 -13.54569328 71.4534296 -13.58541584 78.04994488 C-13.61154625 83.11571384 -13.6199329 88.181402 -13.62352562 93.24723244 C-13.62840204 95.67891529 -13.64004583 98.1105943 -13.65856361 100.54221153 C-13.68287458 103.94662651 -13.68200408 107.35016371 -13.67504883 110.75463867 C-13.68785889 111.76007721 -13.70066895 112.76551575 -13.71386719 113.80142212 C-13.67012397 119.67490918 -13.12644855 123.04571569 -9.20507812 127.51757812 C-6.74105211 128.74959113 -5.02116767 128.67468828 -2.26757812 128.72851562 C-1.29046875 128.756875 -0.31335938 128.78523437 0.69335938 128.81445312 C2.76088579 128.86653188 4.82862358 128.9108046 6.89648438 128.94726562 C7.87359375 128.97820312 8.85070312 129.00914062 9.85742188 129.04101562 C10.75589844 129.06083496 11.654375 129.0806543 12.58007812 129.10107422 C13.31097656 129.23852051 14.041875 129.3759668 14.79492188 129.51757812 C15.45492187 130.50757813 16.11492188 131.49757812 16.79492188 132.51757812 C14.26724822 135.04525178 7.49960185 133.80051235 4.10742188 133.83007812 C3.01751953 133.85908203 1.92761719 133.88808594 0.8046875 133.91796875 C-5.33274098 133.96653027 -9.53552978 133.95181064 -14.20507812 129.51757812 C-18.85265805 124.12644956 -18.77747052 119.50190465 -18.72265625 112.55859375 C-18.72966553 111.46520187 -18.7366748 110.37181 -18.74389648 109.24528503 C-18.76147426 105.63787295 -18.74985371 102.03124793 -18.73632812 98.42382812 C-18.73902308 95.91328786 -18.74290553 93.40274861 -18.7479248 90.89221191 C-18.75381957 85.63330075 -18.7456399 80.37459355 -18.7265625 75.11572266 C-18.70479531 69.04548749 -18.71184742 62.9757898 -18.73386812 56.90556765 C-18.75424322 51.05357527 -18.75204101 45.20178633 -18.74034119 39.34977722 C-18.73767398 36.86508611 -18.74094341 34.38038126 -18.7502594 31.89570618 C-18.7604247 28.42228935 -18.74492238 24.94990266 -18.72265625 21.4765625 C-18.73075317 20.45092697 -18.7388501 19.42529144 -18.74719238 18.36857605 C-18.67873135 12.60015371 -18.2614835 8.9591 -14.20507812 4.51757812 C-9.63401848 0.60538058 -5.84049333 -0.06346689 0 0 Z " fill="#010202" transform="translate(33.205078125,-0.517578125)"/>
<path d="M0 0 C1.10091476 0.00022659 2.20182953 0.00045319 3.33610535 0.00068665 C4.52367935 0.0161705 5.71125336 0.03165436 6.93481445 0.04760742 C8.15135208 0.05185226 9.36788971 0.05609711 10.62129211 0.06047058 C14.51378341 0.07728766 18.40576041 0.11494659 22.2980957 0.15307617 C24.93415594 0.16811904 27.57022429 0.18180813 30.20629883 0.1940918 C36.6745738 0.22720118 43.14254801 0.27743113 49.6105957 0.34057617 C49.6105957 1.66057617 49.6105957 2.98057617 49.6105957 4.34057617 C32.1205957 4.67057617 14.6305957 5.00057617 -3.3894043 5.34057617 C-3.7194043 14.91057617 -4.0494043 24.48057617 -4.3894043 34.34057617 C20.3605957 34.34057617 45.1105957 34.34057617 70.6105957 34.34057617 C70.6105957 24.44057617 70.6105957 14.54057617 70.6105957 4.34057617 C65.3305957 4.34057617 60.0505957 4.34057617 54.6105957 4.34057617 C54.9405957 3.02057617 55.2705957 1.70057617 55.6105957 0.34057617 C58.21538453 0.25964487 60.81766223 0.20012183 63.4230957 0.15307617 C64.16108398 0.12793945 64.89907227 0.10280273 65.65942383 0.0769043 C71.07068298 0.00344829 71.07068298 0.00344829 73.32275391 1.40966797 C75.30690571 4.38457918 74.99985878 6.98762401 75.0090332 10.52807617 C75.01190338 11.22698975 75.01477356 11.92590332 75.01773071 12.64599609 C75.01976996 14.12199719 75.01424973 15.59802539 75.00170898 17.07397461 C74.9856515 19.33272755 75.00156041 21.58969135 75.02075195 23.84838867 C75.01876949 25.28328845 75.01492576 26.71818712 75.0090332 28.15307617 C75.00564941 29.45889648 75.00226563 30.7647168 74.9987793 32.11010742 C74.6105957 35.34057617 74.6105957 35.34057617 73.54641724 37.01821899 C70.61962072 39.0175099 67.67133456 38.75825718 64.24926758 38.72875977 C63.50262344 38.73401672 62.75597931 38.73927368 61.98670959 38.74468994 C59.51737582 38.75789942 57.04868609 38.74914884 54.5793457 38.73901367 C52.86446 38.74103414 51.14957514 38.74394536 49.43469238 38.74771118 C45.84008608 38.75213581 42.24570337 38.74569911 38.65112305 38.73168945 C34.04063877 38.71459738 29.43067837 38.72443784 24.82021332 38.74240685 C21.27891076 38.753241 17.73773267 38.74980006 14.19642639 38.74202347 C12.49634235 38.74002044 10.79624705 38.74248435 9.09617615 38.74946213 C6.72112035 38.7570707 4.3469161 38.74548157 1.97192383 38.72875977 C0.91516197 38.7378688 0.91516197 38.7378688 -0.16294861 38.74716187 C-3.0056819 38.71003229 -4.94150399 38.64653629 -7.32522583 37.01821899 C-9.1129707 34.19989722 -8.77933105 31.43741292 -8.7878418 28.15307617 C-8.79071198 27.4541626 -8.79358215 26.75524902 -8.79653931 26.03515625 C-8.79857855 24.55915516 -8.79305832 23.08312696 -8.78051758 21.60717773 C-8.76446009 19.34842479 -8.780369 17.09146099 -8.79956055 14.83276367 C-8.79757809 13.39786389 -8.79373435 11.96296522 -8.7878418 10.52807617 C-8.78445801 9.22225586 -8.78107422 7.91643555 -8.77758789 6.57104492 C-8.3894043 3.34057617 -8.3894043 3.34057617 -7.20198059 1.65995789 C-4.71588715 -0.14967972 -3.05964384 -0.02100442 0 0 Z " fill="#040808" transform="translate(33.389404296875,9.659423828125)"/>
<path d="M0 0 C0.67675781 -0.00708984 1.35351562 -0.01417969 2.05078125 -0.02148438 C4.79949026 0.01375548 7.00518887 0.16769353 9.44140625 1.49609375 C11.09558029 4.52976348 10.9727599 7.57178215 10.9375 10.9375 C10.9674707 11.95263672 10.9674707 11.95263672 10.99804688 12.98828125 C10.99500004 16.07777064 10.89147389 17.96867464 8.87890625 20.37890625 C5.79886367 21.74949991 3.36748014 21.87113821 0 21.875 C-1.68609375 21.90400391 -1.68609375 21.90400391 -3.40625 21.93359375 C-6.5 21.4375 -6.5 21.4375 -8.87890625 19.81640625 C-11.00245412 16.70016372 -11.00194945 14.68416133 -10.9375 10.9375 C-10.93621094 9.8134375 -10.93492188 8.689375 -10.93359375 7.53125 C-9.94087489 0.44806678 -6.56412444 -0.19379796 0 0 Z " fill="#0C0C0D" transform="translate(35.5,53.5625)"/>
<path d="M0 0 C0.67675781 -0.01998047 1.35351562 -0.03996094 2.05078125 -0.06054688 C5.14027064 -0.05750004 7.03117464 0.04602611 9.44140625 2.05859375 C10.81199991 5.13863633 10.93363821 7.57001986 10.9375 10.9375 C10.96650391 12.62359375 10.96650391 12.62359375 10.99609375 14.34375 C10.5 17.4375 10.5 17.4375 8.87890625 19.81640625 C5.76266372 21.93995412 3.74666133 21.93944945 0 21.875 C-1.1240625 21.87371094 -2.248125 21.87242188 -3.40625 21.87109375 C-6.84377379 21.38931958 -8.2707712 21.10720292 -10.5 18.4375 C-10.88121721 15.77198124 -11.01578456 13.58907379 -10.9375 10.9375 C-10.94458984 10.26074219 -10.95167969 9.58398438 -10.95898438 8.88671875 C-10.92374452 6.13800974 -10.76980647 3.93231113 -9.44140625 1.49609375 C-6.40773652 -0.15808029 -3.36571785 -0.0352599 0 0 Z " fill="#070505" transform="translate(97.5,102.5625)"/>
<path d="M0 0 C0.67675781 -0.00708984 1.35351562 -0.01417969 2.05078125 -0.02148438 C4.79949026 0.01375548 7.00518887 0.16769353 9.44140625 1.49609375 C11.09558029 4.52976348 10.9727599 7.57178215 10.9375 10.9375 C10.9674707 11.95263672 10.9674707 11.95263672 10.99804688 12.98828125 C10.99500004 16.07777064 10.89147389 17.96867464 8.87890625 20.37890625 C5.79886367 21.74949991 3.36748014 21.87113821 0 21.875 C-1.68609375 21.90400391 -1.68609375 21.90400391 -3.40625 21.93359375 C-6.5 21.4375 -6.5 21.4375 -8.87890625 19.81640625 C-11.00245412 16.70016372 -11.00194945 14.68416133 -10.9375 10.9375 C-10.93621094 9.8134375 -10.93492188 8.689375 -10.93359375 7.53125 C-9.94087489 0.44806678 -6.56412444 -0.19379796 0 0 Z " fill="#0B0C0C" transform="translate(35.5,102.5625)"/>
<path d="M0 0 C1.22589844 -0.01933594 2.45179687 -0.03867188 3.71484375 -0.05859375 C7.0625 0.4375 7.0625 0.4375 9.47265625 2.05859375 C11.55084148 5.16821243 11.59662512 7.2178624 11.5625 10.9375 C11.5728125 12.0615625 11.583125 13.185625 11.59375 14.34375 C11.0625 17.4375 11.0625 17.4375 9.47265625 19.81640625 C6.20092245 22.01700516 3.91464827 21.93674524 0 21.875 C-1.84271484 21.87306641 -1.84271484 21.87306641 -3.72265625 21.87109375 C-6.9375 21.4375 -6.9375 21.4375 -8.84765625 20.37890625 C-10.54585742 17.35379521 -10.37032654 14.31071467 -10.3125 10.9375 C-10.32410156 10.26074219 -10.33570312 9.58398438 -10.34765625 8.88671875 C-10.33126907 6.11728497 -10.21797805 3.93713294 -8.84765625 1.49609375 C-5.90688643 -0.13365803 -3.33433543 0.00349878 0 0 Z " fill="#030908" transform="translate(96.9375,77.5625)"/>
<path d="M0 0 C1.1240625 -0.0103125 2.248125 -0.020625 3.40625 -0.03125 C6.5 0.5 6.5 0.5 8.875 2.125 C11.00031957 5.23123629 11.03432374 7.25871215 11 11 C11.0103125 12.1240625 11.020625 13.248125 11.03125 14.40625 C10.5 17.5 10.5 17.5 8.91015625 19.875 C5.64462433 22.07672006 3.34957382 22.03290914 -0.5625 22 C-1.79097656 22.0103125 -3.01945312 22.020625 -4.28515625 22.03125 C-7.5 21.5 -7.5 21.5 -9.40625 19.875 C-10.8247782 16.79476734 -10.9336167 14.38623584 -10.9375 11 C-10.95683594 9.8759375 -10.97617187 8.751875 -10.99609375 7.59375 C-10.5 4.5 -10.5 4.5 -8.87890625 2.125 C-5.77006434 0.00139042 -3.74262654 -0.03433602 0 0 Z " fill="#070708" transform="translate(66.5,77.5)"/>
<path d="M0 0 C1.1240625 0.00128906 2.248125 0.00257812 3.40625 0.00390625 C6.84377379 0.48568042 8.2707712 0.76779708 10.5 3.4375 C10.88121721 6.10301876 11.01578456 8.28592621 10.9375 10.9375 C10.94458984 11.61425781 10.95167969 12.29101562 10.95898438 12.98828125 C10.92351034 15.75525578 10.77823951 17.94362486 9.40625 20.37890625 C6.46814161 22.01051972 3.89507028 21.87150307 0.5625 21.875 C-0.66339844 21.89433594 -1.88929687 21.91367188 -3.15234375 21.93359375 C-6.5 21.4375 -6.5 21.4375 -8.91015625 19.81640625 C-10.98834148 16.70678757 -11.03412512 14.6571376 -11 10.9375 C-11.01546875 9.25140625 -11.01546875 9.25140625 -11.03125 7.53125 C-10.5 4.4375 -10.5 4.4375 -8.875 2.05859375 C-5.7613881 -0.06665121 -3.74528878 -0.06442584 0 0 Z " fill="#09090A" transform="translate(35.5,77.5625)"/>
<path d="M0 0 C0.67675781 -0.01998047 1.35351562 -0.03996094 2.05078125 -0.06054688 C5.13911727 -0.05750118 7.02988594 0.0441586 9.4375 2.05859375 C10.81045367 5.13259664 10.96914016 7.57377726 11 10.9375 C11.0309375 12.0615625 11.061875 13.185625 11.09375 14.34375 C10.5 17.4375 10.5 17.4375 8.34765625 19.8125 C5.09529575 21.66844234 3.15923897 21.97514085 -0.5625 21.9375 C-2.09583984 21.95296875 -2.09583984 21.95296875 -3.66015625 21.96875 C-7.27092955 21.29328209 -8.42281469 20.46019655 -10.5 17.4375 C-10.99609375 14.08984375 -10.99609375 14.08984375 -10.9375 10.375 C-10.93621094 9.14652344 -10.93492188 7.91804688 -10.93359375 6.65234375 C-10.5 3.4375 -10.5 3.4375 -9.44140625 1.53125 C-6.41708349 -0.17259381 -3.37692499 -0.03537731 0 0 Z " fill="#080805" transform="translate(97.5,53.5625)"/>
<path d="M0 0 C1.01513672 -0.01740234 1.01513672 -0.01740234 2.05078125 -0.03515625 C4.82021503 -0.01876907 7.00036706 0.09452195 9.44140625 1.46484375 C11.07115803 4.40561357 10.93400122 6.97816457 10.9375 10.3125 C10.96650391 12.15134766 10.96650391 12.15134766 10.99609375 14.02734375 C10.5 17.375 10.5 17.375 8.87890625 19.78515625 C5.76928757 21.86334148 3.7196376 21.90912512 0 21.875 C-1.1240625 21.8853125 -2.248125 21.895625 -3.40625 21.90625 C-6.5 21.375 -6.5 21.375 -8.87890625 19.78515625 C-11.07950516 16.51342245 -10.99924524 14.22714827 -10.9375 10.3125 C-10.93621094 9.08402344 -10.93492188 7.85554688 -10.93359375 6.58984375 C-10.5 3.375 -10.5 3.375 -9.44140625 1.46484375 C-6.41629521 -0.23335742 -3.37321467 -0.05782654 0 0 Z " fill="#080909" transform="translate(66.5,102.625)"/>
<path d="M0 0 C1.01513672 -0.01740234 1.01513672 -0.01740234 2.05078125 -0.03515625 C4.82021503 -0.01876907 7.00036706 0.09452195 9.44140625 1.46484375 C11.07115803 4.40561357 10.93400122 6.97816457 10.9375 10.3125 C10.96650391 12.15134766 10.96650391 12.15134766 10.99609375 14.02734375 C10.5 17.375 10.5 17.375 8.87890625 19.78515625 C5.76928757 21.86334148 3.7196376 21.90912512 0 21.875 C-1.1240625 21.8853125 -2.248125 21.895625 -3.40625 21.90625 C-6.5 21.375 -6.5 21.375 -8.87890625 19.78515625 C-11.07950516 16.51342245 -10.99924524 14.22714827 -10.9375 10.3125 C-10.93621094 9.08402344 -10.93492188 7.85554688 -10.93359375 6.58984375 C-10.5 3.375 -10.5 3.375 -9.44140625 1.46484375 C-6.41629521 -0.23335742 -3.37321467 -0.05782654 0 0 Z " fill="#090909" transform="translate(66.5,53.625)"/>
<path d="M0 0 C0.9215538 0.00222061 1.8431076 0.00444122 2.79258728 0.00672913 C3.83359085 0.00680466 4.87459442 0.00688019 5.94714355 0.00695801 C7.07941879 0.01211929 8.21169403 0.01728058 9.37828064 0.02259827 C10.53106003 0.02401321 11.68383942 0.02542816 12.87155151 0.02688599 C16.57043503 0.03250446 20.26925903 0.0450601 23.96812439 0.05775452 C26.46877456 0.06276714 28.96942567 0.06733045 31.47007751 0.07142639 C37.61528027 0.0824799 43.76044808 0.099236 49.90562439 0.12025452 C49.90562439 0.45025452 49.90562439 0.78025452 49.90562439 1.12025452 C34.39562439 1.12025452 18.88562439 1.12025452 2.90562439 1.12025452 C2.90562439 10.69025452 2.90562439 20.26025452 2.90562439 30.12025452 C0.92562439 30.12025452 -1.05437561 30.12025452 -3.09437561 30.12025452 C-3.11903307 26.00852892 -3.1372152 21.89683174 -3.14930725 17.78504944 C-3.15434641 16.38530223 -3.16117778 14.98556032 -3.16981506 13.58583069 C-3.18189881 11.57779675 -3.18707368 9.56972494 -3.19203186 7.56166077 C-3.19726868 6.35195618 -3.20250549 5.14225159 -3.207901 3.89588928 C-3.05573259 0.17545355 -3.05573259 0.17545355 0 0 Z " fill="#0EA38E" transform="translate(32.09437561035156,13.879745483398438)"/>
<path d="M0 0 C0.89589844 -0.01417969 1.79179688 -0.02835937 2.71484375 -0.04296875 C5.0625 0.1875 5.0625 0.1875 7.0625 2.1875 C7.29296875 4.75390625 7.29296875 4.75390625 7.25 7.75 C7.24033203 9.23693359 7.24033203 9.23693359 7.23046875 10.75390625 C7.0625 13.1875 7.0625 13.1875 6.0625 14.1875 C4.23134117 14.28601171 2.39630067 14.31722629 0.5625 14.3125 C-0.4378125 14.31507812 -1.438125 14.31765625 -2.46875 14.3203125 C-4.9375 14.1875 -4.9375 14.1875 -5.9375 13.1875 C-6.03623816 11.18950428 -6.06721799 9.18792842 -6.0625 7.1875 C-6.06507812 6.094375 -6.06765625 5.00125 -6.0703125 3.875 C-5.84585421 -0.66697943 -4.08877818 0.02933126 0 0 Z " fill="#DE5B65" transform="translate(96.9375,105.8125)"/>
<path d="M0 0 C0.89589844 -0.01417969 1.79179688 -0.02835938 2.71484375 -0.04296875 C5.0625 0.1875 5.0625 0.1875 7.0625 2.1875 C7.29296875 4.75390625 7.29296875 4.75390625 7.25 7.75 C7.24033203 9.23693359 7.24033203 9.23693359 7.23046875 10.75390625 C7.0625 13.1875 7.0625 13.1875 6.0625 14.1875 C4.23134117 14.28601171 2.39630067 14.31722629 0.5625 14.3125 C-0.4378125 14.31507812 -1.438125 14.31765625 -2.46875 14.3203125 C-4.9375 14.1875 -4.9375 14.1875 -5.9375 13.1875 C-6.03623816 11.18950428 -6.06721799 9.18792842 -6.0625 7.1875 C-6.06507812 6.094375 -6.06765625 5.00125 -6.0703125 3.875 C-5.84585421 -0.66697943 -4.08877818 0.02933126 0 0 Z " fill="#F8E482" transform="translate(96.9375,56.8125)"/>
<path d="M0 0 C4.29 0 8.58 0 13 0 C13.09765625 9.27734375 13.09765625 9.27734375 13 12 C12 13 12 13 9.53125 13.1328125 C8.03078125 13.12894531 8.03078125 13.12894531 6.5 13.125 C5.4996875 13.12757812 4.499375 13.13015625 3.46875 13.1328125 C1 13 1 13 0 12 C-0.14355117 7.99779347 -0.04216403 4.00558317 0 0 Z " fill="#DAD8D9" transform="translate(60,107)"/>
<path d="M0 0 C4.29 0 8.58 0 13 0 C13.09765625 9.27734375 13.09765625 9.27734375 13 12 C12 13 12 13 9.53125 13.1328125 C8.03078125 13.12894531 8.03078125 13.12894531 6.5 13.125 C5.4996875 13.12757812 4.499375 13.13015625 3.46875 13.1328125 C1 13 1 13 0 12 C-0.14355117 7.99779347 -0.04216403 4.00558317 0 0 Z " fill="#D3D1D2" transform="translate(60,58)"/>
<path d="M0 0 C1.65322266 0.01740234 1.65322266 0.01740234 3.33984375 0.03515625 C4.99693359 0.04869141 4.99693359 0.04869141 6.6875 0.0625 C7.54214844 0.07410156 8.39679687 0.08570312 9.27734375 0.09765625 C9.30420928 2.07675023 9.3236775 4.05594596 9.33984375 6.03515625 C9.35144531 7.13730469 9.36304688 8.23945312 9.375 9.375 C9.27734375 12.09765625 9.27734375 12.09765625 8.27734375 13.09765625 C6.44618492 13.19616796 4.61114442 13.22738254 2.77734375 13.22265625 C1.77703125 13.22523437 0.77671875 13.2278125 -0.25390625 13.23046875 C-2.72265625 13.09765625 -2.72265625 13.09765625 -3.72265625 12.09765625 C-3.82116796 10.26649742 -3.85238254 8.43145692 -3.84765625 6.59765625 C-3.85023437 5.59734375 -3.8528125 4.59703125 -3.85546875 3.56640625 C-3.66839177 0.08897525 -3.50637665 0.12576674 0 0 Z " fill="#DDDBDC" transform="translate(32.72265625,106.90234375)"/>
<path d="M0 0 C1.50046875 0.00386719 1.50046875 0.00386719 3.03125 0.0078125 C4.0315625 0.00523438 5.031875 0.00265625 6.0625 0 C8.53125 0.1328125 8.53125 0.1328125 9.53125 1.1328125 C9.62976171 2.96397133 9.66097629 4.79901183 9.65625 6.6328125 C9.65882812 7.633125 9.66140625 8.6334375 9.6640625 9.6640625 C9.53125 12.1328125 9.53125 12.1328125 8.53125 13.1328125 C6.51160801 13.20525303 4.48957876 13.21658438 2.46875 13.1953125 C1.36402344 13.18628906 0.25929688 13.17726563 -0.87890625 13.16796875 C-2.16087891 13.15056641 -2.16087891 13.15056641 -3.46875 13.1328125 C-3.49561553 11.15371852 -3.51508375 9.17452279 -3.53125 7.1953125 C-3.54285156 6.09316406 -3.55445312 4.99101563 -3.56640625 3.85546875 C-3.43474599 0.18478064 -3.43474599 0.18478064 0 0 Z " fill="#2FC9B5" transform="translate(94.46875,81.8671875)"/>
<path d="M0 0 C1.50046875 0.00386719 1.50046875 0.00386719 3.03125 0.0078125 C4.0315625 0.00523438 5.031875 0.00265625 6.0625 0 C8.53125 0.1328125 8.53125 0.1328125 9.53125 1.1328125 C9.60369053 3.15245449 9.61502188 5.17448374 9.59375 7.1953125 C9.58472656 8.30003906 9.57570313 9.40476562 9.56640625 10.54296875 C9.55480469 11.39761719 9.54320312 12.25226563 9.53125 13.1328125 C7.55215602 13.15967803 5.57296029 13.17914625 3.59375 13.1953125 C2.49160156 13.20691406 1.38945313 13.21851562 0.25390625 13.23046875 C-2.46875 13.1328125 -2.46875 13.1328125 -3.46875 12.1328125 C-3.56726171 10.30165367 -3.59847629 8.46661317 -3.59375 6.6328125 C-3.59632812 5.6325 -3.59890625 4.6321875 -3.6015625 3.6015625 C-3.42265191 0.27593033 -3.32563217 0.17891059 0 0 Z " fill="#DBD8DA" transform="translate(32.46875,81.8671875)"/>
<path d="M0 0 C1.65322266 0.01740234 1.65322266 0.01740234 3.33984375 0.03515625 C4.99693359 0.04869141 4.99693359 0.04869141 6.6875 0.0625 C7.54214844 0.07410156 8.39679687 0.08570313 9.27734375 0.09765625 C9.30420928 2.07675023 9.3236775 4.05594596 9.33984375 6.03515625 C9.35144531 7.13730469 9.36304688 8.23945312 9.375 9.375 C9.27734375 12.09765625 9.27734375 12.09765625 8.27734375 13.09765625 C6.44618492 13.19616796 4.61114442 13.22738254 2.77734375 13.22265625 C1.77703125 13.22523437 0.77671875 13.2278125 -0.25390625 13.23046875 C-2.72265625 13.09765625 -2.72265625 13.09765625 -3.72265625 12.09765625 C-3.82116796 10.26649742 -3.85238254 8.43145692 -3.84765625 6.59765625 C-3.85023437 5.59734375 -3.8528125 4.59703125 -3.85546875 3.56640625 C-3.66839177 0.08897525 -3.50637665 0.12576674 0 0 Z " fill="#DDDBDC" transform="translate(32.72265625,57.90234375)"/>
<path d="M0 0 C1.50046875 0.00386719 1.50046875 0.00386719 3.03125 0.0078125 C4.0315625 0.00523438 5.031875 0.00265625 6.0625 0 C8.53125 0.1328125 8.53125 0.1328125 9.53125 1.1328125 C9.62976171 2.96397133 9.66097629 4.79901183 9.65625 6.6328125 C9.65882812 7.633125 9.66140625 8.6334375 9.6640625 9.6640625 C9.53125 12.1328125 9.53125 12.1328125 8.53125 13.1328125 C6.70009117 13.23132421 4.86505067 13.26253879 3.03125 13.2578125 C2.0309375 13.26039062 1.030625 13.26296875 0 13.265625 C-2.46875 13.1328125 -2.46875 13.1328125 -3.46875 12.1328125 C-3.56726171 10.30165367 -3.59847629 8.46661317 -3.59375 6.6328125 C-3.59632812 5.6325 -3.59890625 4.6321875 -3.6015625 3.6015625 C-3.42265191 0.27593033 -3.32563217 0.17891059 0 0 Z " fill="#D6D4D5" transform="translate(63.46875,81.8671875)"/>
<path d="M0 0 C1.32 0 2.64 0 4 0 C4 8.91 4 17.82 4 27 C2.68 27 1.36 27 0 27 C0 18.09 0 9.18 0 0 Z " fill="#00AC93" transform="translate(31,16)"/>
<path d="M0 0 C1.32 0 2.64 0 4 0 C4 3.96 4 7.92 4 12 C6.64 12 9.28 12 12 12 C12 12.33 12 12.66 12 13 C10.18757948 13.02687279 8.37504767 13.04633715 6.5625 13.0625 C5.55316406 13.07410156 4.54382813 13.08570312 3.50390625 13.09765625 C1 13 1 13 0 12 C-0.07244053 9.98035801 -0.08377188 7.95832876 -0.0625 5.9375 C-0.05347656 4.83277344 -0.04445312 3.72804688 -0.03515625 2.58984375 C-0.02355469 1.73519531 -0.01195312 0.88054687 0 0 Z " fill="#BBB9BA" transform="translate(60,107)"/>
<path d="M0 0 C0.60328125 0.08378906 1.2065625 0.16757812 1.828125 0.25390625 C3.02695312 0.40666016 3.02695312 0.40666016 4.25 0.5625 C5.03890625 0.66691406 5.8278125 0.77132813 6.640625 0.87890625 C9.00532874 1.00027349 10.7511037 0.69633257 13 0 C12.625 2.4375 12.625 2.4375 12 5 C9.77109005 6.11445498 8.46944894 6.16480286 6 6.1875 C4.948125 6.20876953 4.948125 6.20876953 3.875 6.23046875 C2 6 2 6 0 4 C0 2.68 0 1.36 0 0 Z " fill="#051816" transform="translate(60,28)"/>
<path d="M0 0 C1.51400391 0.01740234 1.51400391 0.01740234 3.05859375 0.03515625 C4.07050781 0.04417969 5.08242188 0.05320312 6.125 0.0625 C7.29869141 0.07990234 7.29869141 0.07990234 8.49609375 0.09765625 C8.49609375 0.42765625 8.49609375 0.75765625 8.49609375 1.09765625 C5.85609375 1.09765625 3.21609375 1.09765625 0.49609375 1.09765625 C0.49609375 5.05765625 0.49609375 9.01765625 0.49609375 13.09765625 C-0.82390625 12.76765625 -2.14390625 12.43765625 -3.50390625 12.09765625 C-3.53077904 10.28523573 -3.5502434 8.47270392 -3.56640625 6.66015625 C-3.57800781 5.65082031 -3.58960937 4.64148438 -3.6015625 3.6015625 C-3.46988459 0.22534083 -3.37622167 0.13167791 0 0 Z " fill="#BAB8B9" transform="translate(32.50390625,81.90234375)"/>
<path d="M0 0 C1.37478516 0.01740234 1.37478516 0.01740234 2.77734375 0.03515625 C3.69644531 0.04417969 4.61554688 0.05320312 5.5625 0.0625 C6.27277344 0.07410156 6.98304687 0.08570312 7.71484375 0.09765625 C7.71484375 0.42765625 7.71484375 0.75765625 7.71484375 1.09765625 C5.07484375 1.09765625 2.43484375 1.09765625 -0.28515625 1.09765625 C-0.28515625 5.05765625 -0.28515625 9.01765625 -0.28515625 13.09765625 C2.68484375 13.09765625 5.65484375 13.09765625 8.71484375 13.09765625 C8.71484375 13.42765625 8.71484375 13.75765625 8.71484375 14.09765625 C6.90242323 14.12452904 5.08989142 14.1439934 3.27734375 14.16015625 C2.26800781 14.17175781 1.25867188 14.18335937 0.21875 14.1953125 C-2.28515625 14.09765625 -2.28515625 14.09765625 -3.28515625 13.09765625 C-3.38389441 11.09966053 -3.41487424 9.09808467 -3.41015625 7.09765625 C-3.41273437 6.00453125 -3.4153125 4.91140625 -3.41796875 3.78515625 C-3.23774943 0.13836536 -3.23774943 0.13836536 0 0 Z " fill="#B03546" transform="translate(94.28515625,105.90234375)"/>
<path d="M0 0 C1.37478516 0.01740234 1.37478516 0.01740234 2.77734375 0.03515625 C3.69644531 0.04417969 4.61554688 0.05320313 5.5625 0.0625 C6.27277344 0.07410156 6.98304687 0.08570313 7.71484375 0.09765625 C7.71484375 0.42765625 7.71484375 0.75765625 7.71484375 1.09765625 C5.07484375 1.09765625 2.43484375 1.09765625 -0.28515625 1.09765625 C-0.28515625 5.05765625 -0.28515625 9.01765625 -0.28515625 13.09765625 C2.68484375 13.09765625 5.65484375 13.09765625 8.71484375 13.09765625 C8.71484375 13.42765625 8.71484375 13.75765625 8.71484375 14.09765625 C6.90242323 14.12452904 5.08989142 14.1439934 3.27734375 14.16015625 C2.26800781 14.17175781 1.25867188 14.18335937 0.21875 14.1953125 C-2.28515625 14.09765625 -2.28515625 14.09765625 -3.28515625 13.09765625 C-3.38389441 11.09966053 -3.41487424 9.09808467 -3.41015625 7.09765625 C-3.41273437 6.00453125 -3.4153125 4.91140625 -3.41796875 3.78515625 C-3.23774943 0.13836536 -3.23774943 0.13836536 0 0 Z " fill="#CEAD2E" transform="translate(94.28515625,56.90234375)"/>
<path d="M0 0 C3.96 0 7.92 0 12 0 C12.09765625 9.27734375 12.09765625 9.27734375 12 12 C11 13 11 13 8.49609375 13.09765625 C6.98208984 13.08025391 6.98208984 13.08025391 5.4375 13.0625 C4.42558594 13.05347656 3.41367188 13.04445313 2.37109375 13.03515625 C1.58863281 13.02355469 0.80617187 13.01195313 0 13 C0 12.34 0 11.68 0 11 C3.3 11 6.6 11 10 11 C10 7.7 10 4.4 10 1 C6.7 1 3.4 1 0 1 C0 0.67 0 0.34 0 0 Z " fill="#D3D1D2" transform="translate(61,58)"/>
<path d="M0 0 C1.51400391 0.01740234 1.51400391 0.01740234 3.05859375 0.03515625 C4.07050781 0.04417969 5.08242187 0.05320312 6.125 0.0625 C7.29869141 0.07990234 7.29869141 0.07990234 8.49609375 0.09765625 C8.49609375 0.42765625 8.49609375 0.75765625 8.49609375 1.09765625 C5.52609375 1.09765625 2.55609375 1.09765625 -0.50390625 1.09765625 C-0.50390625 5.05765625 -0.50390625 9.01765625 -0.50390625 13.09765625 C-1.49390625 13.09765625 -2.48390625 13.09765625 -3.50390625 13.09765625 C-3.53077178 11.11856227 -3.55024 9.13936654 -3.56640625 7.16015625 C-3.57800781 6.05800781 -3.58960937 4.95585938 -3.6015625 3.8203125 C-3.46938887 0.13531158 -3.46938887 0.13531158 0 0 Z " fill="#0AB69E" transform="translate(94.50390625,81.90234375)"/>
<path d="M0 0 C0.78117187 0.47566406 0.78117187 0.47566406 1.578125 0.9609375 C4.67408709 2.28920511 7.39404121 2.42364247 10.75 2.625 C12.50570312 2.73714844 12.50570312 2.73714844 14.296875 2.8515625 C15.18890625 2.90054688 16.0809375 2.94953125 17 3 C16.67 3.99 16.34 4.98 16 6 C11.71 6 7.42 6 3 6 C3 5.34 3 4.68 3 4 C2.01 3.34 1.02 2.68 0 2 C0 1.34 0 0.68 0 0 Z " fill="#3F4E50" transform="translate(87,72)"/>
<path d="M0 0 C4.29 0 8.58 0 13 0 C13.33 0.99 13.66 1.98 14 3 C9.05 3 4.1 3 -1 3 C-0.67 2.01 -0.34 1.02 0 0 Z " fill="#3F4E50" transform="translate(29,75)"/>
<path d="M0 0 C0.99 0.33 1.98 0.66 3 1 C2.34 1 1.68 1 1 1 C1 4.3 1 7.6 1 11 C4.3 11.33 7.6 11.66 11 12 C11 12.33 11 12.66 11 13 C9.18757948 13.02687279 7.37504767 13.04633715 5.5625 13.0625 C4.55316406 13.07410156 3.54382812 13.08570312 2.50390625 13.09765625 C0 13 0 13 -1 12 C-1.09851171 10.16884117 -1.12972629 8.33380067 -1.125 6.5 C-1.12757812 5.4996875 -1.13015625 4.499375 -1.1328125 3.46875 C-1 1 -1 1 0 0 Z " fill="#ADABAC" transform="translate(30,107)"/>
<path d="M0 0 C0.99 0.33 1.98 0.66 3 1 C2.34 1 1.68 1 1 1 C1 4.3 1 7.6 1 11 C4.3 11.33 7.6 11.66 11 12 C11 12.33 11 12.66 11 13 C9.18757948 13.02687279 7.37504767 13.04633715 5.5625 13.0625 C4.55316406 13.07410156 3.54382812 13.08570312 2.50390625 13.09765625 C0 13 0 13 -1 12 C-1.09851171 10.16884117 -1.12972629 8.33380067 -1.125 6.5 C-1.12757812 5.4996875 -1.13015625 4.499375 -1.1328125 3.46875 C-1 1 -1 1 0 0 Z " fill="#ABAAAB" transform="translate(30,58)"/>
<path d="M0 0 C0.99 0.33 1.98 0.66 3 1 C3 4.3 3 7.6 3 11 C2.01 11.33 1.02 11.66 0 12 C0 8.04 0 4.08 0 0 Z " fill="#BAB8B9" transform="translate(60,58)"/>
<path d="M0 0 C0.99 0 1.98 0 3 0 C3 3.3 3 6.6 3 10 C2.01 10 1.02 10 0 10 C0 6.7 0 3.4 0 0 Z " fill="#C7C5C6" transform="translate(31,108)"/>
<path d="M0 0 C0.99 0.33 1.98 0.66 3 1 C3 4.3 3 7.6 3 11 C2.01 11 1.02 11 0 11 C0 7.37 0 3.74 0 0 Z " fill="#BDBBBC" transform="translate(60,83)"/>
<path d="M0 0 C0.99 0 1.98 0 3 0 C3 3.3 3 6.6 3 10 C2.01 10 1.02 10 0 10 C0 6.7 0 3.4 0 0 Z " fill="#C7C5C6" transform="translate(31,59)"/>
<path d="M0 0 C0.99 0.33 1.98 0.66 3 1 C3 2.98 3 4.96 3 7 C1.68 7 0.36 7 -1 7 C-1.04254356 5.00045254 -1.04080783 2.99958364 -1 1 C-0.67 0.67 -0.34 0.34 0 0 Z " fill="#020C0B" transform="translate(86,25)"/>
<path d="M0 0 C0.99 0.33 1.98 0.66 3 1 C3 2.98 3 4.96 3 7 C1.68 7 0.36 7 -1 7 C-1.04254356 5.00045254 -1.04080783 2.99958364 -1 1 C-0.67 0.67 -0.34 0.34 0 0 Z " fill="#020C0B" transform="translate(45,25)"/>
</svg>
